<svg width="56" height="57" viewBox="0 0 56 57" fill="none" xmlns="http://www.w3.org/2000/svg">
<g clip-path="url(#clip0_2208_2619)">
<path fill-rule="evenodd" clip-rule="evenodd" d="M28 15.4362C20.4316 15.4362 13.9643 19.4869 8.61188 28.0613C13.4666 35.841 19.2393 39.8817 25.8791 40.5769C26.5739 40.649 27.2823 40.6862 28 40.6862C28.7594 40.6862 29.375 41.3018 29.375 42.0612C29.375 42.8205 28.7594 43.4362 28 43.4362C27.1872 43.4362 26.3838 43.394 25.5947 43.3121L25.5935 43.312C17.6294 42.4784 11.0507 37.4889 5.8208 28.7683C5.55968 28.3329 5.55974 27.7891 5.82095 27.3537C11.5855 17.7461 18.9736 12.6862 28 12.6862C36.6827 12.6862 43.8578 17.3712 49.5237 26.2927C49.9308 26.9337 49.7412 27.7834 49.1001 28.1905C48.4591 28.5976 47.6094 28.408 47.2023 27.767C41.8875 19.3984 35.4873 15.4362 28 15.4362ZM28.0026 22.0195C26.4003 22.0195 24.8635 22.6561 23.7305 23.7891C22.5975 24.9221 21.9609 26.4588 21.9609 28.0612C21.9609 29.6635 22.5975 31.2003 23.7305 32.3333C24.8635 33.4663 26.4003 34.1029 28.0026 34.1029C29.605 34.1029 31.1417 33.4663 32.2747 32.3333C33.4077 31.2003 34.0443 29.6635 34.0443 28.0612C34.0443 26.4588 33.4077 24.9221 32.2747 23.7891C31.1417 22.6561 29.605 22.0195 28.0026 22.0195ZM25.675 25.7336C26.2924 25.1163 27.1296 24.7695 28.0026 24.7695C28.8756 24.7695 29.7129 25.1163 30.3302 25.7336C30.9475 26.3509 31.2943 27.1882 31.2943 28.0612C31.2943 28.9342 30.9475 29.7715 30.3302 30.3888C29.7129 31.0061 28.8756 31.3529 28.0026 31.3529C27.1296 31.3529 26.2924 31.0061 25.675 30.3888C25.0577 29.7715 24.7109 28.9342 24.7109 28.0612C24.7109 27.1882 25.0577 26.3509 25.675 25.7336ZM36.078 36.1391C37.6486 34.5685 39.7788 33.6862 42 33.6862C44.2212 33.6862 46.3514 34.5685 47.922 36.1391C49.4926 37.7098 50.375 39.84 50.375 42.0612C50.375 43.8187 49.8225 45.5194 48.8138 46.9309L52.3051 50.4222C52.8421 50.9592 52.8421 51.8298 52.3051 52.3667C51.7681 52.9037 50.8975 52.9037 50.3605 52.3667L46.8691 48.8753C45.4578 49.8838 43.7574 50.4362 42 50.4362C39.7788 50.4362 37.6486 49.5538 36.078 47.9832C34.5074 46.4126 33.625 44.2823 33.625 42.0612C33.625 39.84 34.5074 37.7098 36.078 36.1391ZM42 36.4362C40.5082 36.4362 39.0774 37.0288 38.0225 38.0837C36.9676 39.1386 36.375 40.5693 36.375 42.0612C36.375 43.553 36.9676 44.9837 38.0225 46.0386C39.0774 47.0935 40.5082 47.6862 42 47.6862C43.4918 47.6862 44.9226 47.0935 45.9775 46.0386C47.0324 44.9837 47.625 43.553 47.625 42.0612C47.625 40.5693 47.0324 39.1386 45.9775 38.0837C44.9226 37.0288 43.4918 36.4362 42 36.4362Z" fill="url(#paint0_linear_2208_2619)"/>
</g>
<defs>
<linearGradient id="paint0_linear_2208_2619" x1="29.1664" y1="12.6862" x2="29.1664" y2="52.7695" gradientUnits="userSpaceOnUse">
<stop stop-color="#93D600"/>
<stop offset="1" stop-color="#55B03B"/>
</linearGradient>
<clipPath id="clip0_2208_2619">
<rect width="56" height="56" fill="white" transform="translate(0 0.0611572)"/>
</clipPath>
</defs>
</svg>
