<svg width="56" height="57" viewBox="0 0 56 57" fill="none" xmlns="http://www.w3.org/2000/svg">
<g clip-path="url(#clip0_2208_2632)">
<path d="M11.6638 16.9588C11.6638 15.5973 12.2047 14.2917 13.1674 13.329C14.13 12.3663 15.4357 11.8255 16.7972 11.8255H19.1305C20.4859 11.8247 21.786 11.2879 22.7472 10.3321L24.3805 8.69879C24.8575 8.21906 25.4247 7.83836 26.0494 7.57857C26.6741 7.31879 27.344 7.18506 28.0205 7.18506C28.6971 7.18506 29.3669 7.31879 29.9916 7.57857C30.6163 7.83836 31.1835 8.21906 31.6605 8.69879L33.2938 10.3321C34.2552 11.2888 35.5572 11.8255 36.9105 11.8255H39.2438C40.6053 11.8255 41.911 12.3663 42.8737 13.329C43.8363 14.2917 44.3772 15.5973 44.3772 16.9588V19.2921C44.3772 20.6455 44.9138 21.9475 45.8705 22.9088L47.5038 24.5421C47.9836 25.0192 48.3643 25.5863 48.624 26.211C48.8838 26.8357 49.0176 27.5056 49.0176 28.1821C49.0176 28.8587 48.8838 29.5285 48.624 30.1532C48.3643 30.7779 47.9836 31.3451 47.5038 31.8221L45.8705 33.4555C44.9148 34.4166 44.3779 35.7167 44.3772 37.0721V39.4055C44.3772 40.7669 43.8363 42.0726 42.8737 43.0353C41.911 43.998 40.6053 44.5388 39.2438 44.5388H36.9105C35.5551 44.5396 34.255 45.0764 33.2938 46.0321L31.6605 47.6655C31.1835 48.1452 30.6163 48.5259 29.9916 48.7857C29.3669 49.0455 28.6971 49.1792 28.0205 49.1792C27.344 49.1792 26.6741 49.0455 26.0494 48.7857C25.4247 48.5259 24.8575 48.1452 24.3805 47.6655L22.7472 46.0321C21.786 45.0764 20.4859 44.5396 19.1305 44.5388H16.7972C15.4357 44.5388 14.13 43.998 13.1674 43.0353C12.2047 42.0726 11.6638 40.7669 11.6638 39.4055V37.0721C11.6631 35.7167 11.1262 34.4166 10.1705 33.4555L8.53717 31.8221C8.05744 31.3451 7.67673 30.7779 7.41695 30.1532C7.15717 29.5285 7.02344 28.8587 7.02344 28.1821C7.02344 27.5056 7.15717 26.8357 7.41695 26.211C7.67673 25.5863 8.05744 25.0192 8.53717 24.5421L10.1705 22.9088C11.1262 21.9477 11.6631 20.6476 11.6638 19.2921V16.9588Z" stroke="url(#paint0_linear_2208_2632)" stroke-width="2.75" stroke-linecap="round" stroke-linejoin="round"/>
<path d="M21 28.1588L25.6667 32.8255L35 23.4921" stroke="url(#paint1_linear_2208_2632)" stroke-width="2.75" stroke-linecap="round" stroke-linejoin="round"/>
</g>
<defs>
<linearGradient id="paint0_linear_2208_2632" x1="28.0205" y1="7.18506" x2="28.0205" y2="49.1792" gradientUnits="userSpaceOnUse">
<stop stop-color="#93D600"/>
<stop offset="1" stop-color="#55B03B"/>
</linearGradient>
<linearGradient id="paint1_linear_2208_2632" x1="28" y1="23.4921" x2="28" y2="32.8255" gradientUnits="userSpaceOnUse">
<stop stop-color="#93D600"/>
<stop offset="1" stop-color="#55B03B"/>
</linearGradient>
<clipPath id="clip0_2208_2632">
<rect width="56" height="56" fill="white" transform="translate(0 0.158813)"/>
</clipPath>
</defs>
</svg>
