<svg width="44" height="48" viewBox="0 0 44 48" fill="none" xmlns="http://www.w3.org/2000/svg">
<path fill-rule="evenodd" clip-rule="evenodd" d="M9.33073 0.686157C7.72838 0.686157 6.19166 1.32269 5.05863 2.45572C3.92559 3.58875 3.28906 5.12547 3.28906 6.72782C3.28906 8.33017 3.92559 9.8669 5.05863 10.9999C6.19166 12.133 7.72838 12.7695 9.33073 12.7695C10.9331 12.7695 12.4698 12.133 13.6028 10.9999C14.7359 9.8669 15.3724 8.33017 15.3724 6.72782C15.3724 5.12547 14.7359 3.58875 13.6028 2.45572C12.4698 1.32269 10.9331 0.686157 9.33073 0.686157ZM7.00317 4.40026C7.62048 3.78296 8.45772 3.43616 9.33073 3.43616C10.2037 3.43616 11.041 3.78296 11.6583 4.40026C12.2756 5.01757 12.6224 5.85482 12.6224 6.72782C12.6224 7.60083 12.2756 8.43808 11.6583 9.05538C11.041 9.67269 10.2037 10.0195 9.33073 10.0195C8.45772 10.0195 7.62048 9.67269 7.00317 9.05538C6.38586 8.43808 6.03906 7.60083 6.03906 6.72782C6.03906 5.85482 6.38586 5.01757 7.00317 4.40026ZM3.99163 22.3835C4.17135 22.2038 4.41511 22.1028 4.66927 22.1028H14.0026C14.2568 22.1028 14.5005 22.2038 14.6802 22.3835C14.86 22.5632 14.9609 22.807 14.9609 23.0611V31.8249L13.0303 33.7555C12.7725 34.0134 12.6276 34.3631 12.6276 34.7278V46.3945C12.6276 47.1538 13.2432 47.7695 14.0026 47.7695C14.762 47.7695 15.3776 47.1538 15.3776 46.3945V35.2973L17.3082 33.3667C17.5661 33.1089 17.7109 32.7591 17.7109 32.3945V23.0611C17.7109 22.0776 17.3202 21.1344 16.6248 20.4389C15.9293 19.7435 14.9861 19.3528 14.0026 19.3528H4.66927C3.68576 19.3528 2.74253 19.7435 2.04708 20.4389C1.35164 21.1344 0.960938 22.0776 0.960938 23.0611V32.3945C0.960938 32.7591 1.1058 33.1089 1.36367 33.3667L3.29427 35.2973V46.3945C3.29427 47.1538 3.90988 47.7695 4.66927 47.7695C5.42866 47.7695 6.04427 47.1538 6.04427 46.3945V34.7278C6.04427 34.3631 5.89941 34.0134 5.64154 33.7555L3.71094 31.8249V23.0611C3.71094 22.807 3.8119 22.5632 3.99163 22.3835ZM28.3946 2.45572C29.5276 1.32269 31.0643 0.686157 32.6667 0.686157C34.269 0.686157 35.8057 1.32269 36.9388 2.45572C38.0718 3.58875 38.7083 5.12547 38.7083 6.72782C38.7083 8.33017 38.0718 9.8669 36.9388 10.9999C35.8057 12.133 34.269 12.7695 32.6667 12.7695C31.0643 12.7695 29.5276 12.133 28.3946 10.9999C27.2615 9.8669 26.625 8.33017 26.625 6.72782C26.625 5.12547 27.2615 3.58875 28.3946 2.45572ZM32.6667 3.43616C31.7937 3.43616 30.9564 3.78296 30.3391 4.40026C29.7218 5.01757 29.375 5.85482 29.375 6.72782C29.375 7.60083 29.7218 8.43808 30.3391 9.05538C30.9564 9.67269 31.7937 10.0195 32.6667 10.0195C33.5397 10.0195 34.3769 9.67269 34.9942 9.05538C35.6115 8.43808 35.9583 7.60083 35.9583 6.72782C35.9583 5.85482 35.6115 5.01757 34.9942 4.40026C34.3769 3.78296 33.5397 3.43616 32.6667 3.43616ZM29.6583 22.3835C29.838 22.2038 30.0818 22.1028 30.3359 22.1028H35.0026C35.2568 22.1028 35.5005 22.2038 35.6803 22.3835C35.86 22.5632 35.9609 22.8069 35.9609 23.0611C35.9609 23.2089 35.9848 23.3557 36.0315 23.4959L40.0949 35.6861H37.3359C36.5765 35.6861 35.9609 36.3017 35.9609 37.0611V46.3945C35.9609 47.1538 36.5765 47.7695 37.3359 47.7695C38.0953 47.7695 38.7109 47.1538 38.7109 46.3945V38.4361H42.0026C42.4446 38.4361 42.8596 38.2237 43.1181 37.8651C43.3765 37.5065 43.4468 37.0456 43.307 36.6263L38.7026 22.8131C38.6428 21.9202 38.2616 21.0757 37.6248 20.4389C36.9293 19.7435 35.9861 19.3528 35.0026 19.3528H30.3359C29.3524 19.3528 28.4092 19.7435 27.7138 20.4389C27.077 21.0757 26.6957 21.9202 26.6359 22.8131L22.0315 36.6263C21.8917 37.0456 21.962 37.5065 22.2205 37.8651C22.4789 38.2237 22.894 38.4361 23.3359 38.4361H26.6276V46.3945C26.6276 47.1538 27.2432 47.7695 28.0026 47.7695C28.762 47.7695 29.3776 47.1538 29.3776 46.3945V37.0611C29.3776 36.3017 28.762 35.6861 28.0026 35.6861H25.2436L29.307 23.4959C29.3538 23.3557 29.3776 23.2089 29.3776 23.0611C29.3776 22.807 29.4786 22.5632 29.6583 22.3835Z" fill="url(#paint0_linear_2208_2591)"/>
<defs>
<linearGradient id="paint0_linear_2208_2591" x1="22.1693" y1="0.686157" x2="22.1693" y2="47.7695" gradientUnits="userSpaceOnUse">
<stop stop-color="#93D600"/>
<stop offset="1" stop-color="#55B03B"/>
</linearGradient>
</defs>
</svg>
