<svg width="32" height="32" viewBox="0 0 32 32" fill="none" xmlns="http://www.w3.org/2000/svg">
<g clip-path="url(#clip0_2121_196)">
<path d="M24 10.6665C25.0609 10.6665 26.0783 11.0879 26.8284 11.8381C27.5786 12.5882 28 13.6056 28 14.6665C28 15.7274 27.5786 16.7448 26.8284 17.4949C26.0783 18.2451 25.0609 18.6665 24 18.6665" stroke="#55B03B" stroke-width="1.5" stroke-linecap="round" stroke-linejoin="round"/>
<path d="M13.3359 10.6665V25.3332C13.3359 25.6868 13.1955 26.0259 12.9454 26.276C12.6954 26.526 12.3562 26.6665 12.0026 26.6665H10.6693C10.3156 26.6665 9.97651 26.526 9.72646 26.276C9.47641 26.0259 9.33594 25.6868 9.33594 25.3332V18.6665" stroke="#55B03B" stroke-width="1.5" stroke-linecap="round" stroke-linejoin="round"/>
<path d="M16 10.6664L22.032 5.63977C22.2073 5.49378 22.4205 5.40077 22.6468 5.37164C22.873 5.34251 23.1029 5.37847 23.3094 5.4753C23.5159 5.57213 23.6906 5.72582 23.8129 5.91837C23.9352 6.11091 24.0001 6.33433 24 6.56243V22.7704C24.0001 22.9985 23.9352 23.222 23.8129 23.4145C23.6906 23.607 23.5159 23.7607 23.3094 23.8576C23.1029 23.9544 22.873 23.9904 22.6468 23.9612C22.4205 23.9321 22.2073 23.8391 22.032 23.6931L16 18.6664H5.33333C4.97971 18.6664 4.64057 18.526 4.39052 18.2759C4.14048 18.0259 4 17.6867 4 17.3331V11.9998C4 11.6461 4.14048 11.307 4.39052 11.057C4.64057 10.8069 4.97971 10.6664 5.33333 10.6664H16Z" stroke="#55B03B" stroke-width="1.5" stroke-linecap="round" stroke-linejoin="round"/>
</g>
<defs>
<clipPath id="clip0_2121_196">
<rect width="32" height="32" fill="white"/>
</clipPath>
</defs>
</svg>
