<svg width="57" height="58" viewBox="0 0 57 58" fill="none" xmlns="http://www.w3.org/2000/svg">
<g clip-path="url(#clip0_2208_2602)">
<path d="M42.3405 49.9535L37.2725 52.6785C37.1221 52.7589 36.9529 52.7947 36.7838 52.7821C36.6147 52.7694 36.4524 52.7088 36.3149 52.607C36.1774 52.5051 36.0702 52.3661 36.0053 52.2054C35.9404 52.0446 35.9203 51.8686 35.9472 51.6968L36.9155 45.9236L32.8159 41.8361C32.6935 41.7147 32.6069 41.5604 32.5658 41.3909C32.5248 41.2214 32.531 41.0435 32.5838 40.8774C32.6366 40.7114 32.7339 40.5639 32.8644 40.4519C32.995 40.3398 33.1536 40.2677 33.3222 40.2437L38.9875 39.4008L41.5215 34.1496C41.5973 33.9932 41.7141 33.8616 41.8588 33.7696C42.0035 33.6776 42.1703 33.6289 42.3405 33.6289C42.5107 33.6289 42.6776 33.6776 42.8223 33.7696C42.9669 33.8616 43.0837 33.9932 43.1595 34.1496L45.6935 39.4008L51.3589 40.2437C51.527 40.2685 51.6849 40.3411 51.8149 40.4533C51.9449 40.5654 52.0417 40.7127 52.0944 40.8784C52.1471 41.0441 52.1535 41.2216 52.113 41.3908C52.0725 41.5601 51.9867 41.7143 51.8652 41.8361L47.7655 45.9236L48.7315 51.6944C48.7605 51.8665 48.7419 52.0434 48.6778 52.2052C48.6137 52.367 48.5067 52.5071 48.3689 52.6096C48.2311 52.7121 48.0681 52.7729 47.8983 52.7851C47.7286 52.7972 47.5589 52.7603 47.4085 52.6785L42.3405 49.9535Z" stroke="url(#paint0_linear_2208_2602)" stroke-width="2.75" stroke-linecap="round" stroke-linejoin="round"/>
<path fill-rule="evenodd" clip-rule="evenodd" d="M50.5215 8.51135C50.9303 8.7611 51.1797 9.20566 51.1797 9.68475V27.6438C51.1797 28.4031 50.5641 29.0188 49.8047 29.0188C49.0453 29.0188 48.4297 28.4031 48.4297 27.6438V11.9357L37.1797 17.7083V26.4465C37.1797 27.2059 36.5641 27.8215 35.8047 27.8215C35.0453 27.8215 34.4297 27.2059 34.4297 26.4465V17.7083L23.1797 11.9357V39.9738L24.1077 40.45C24.7834 40.7966 25.0501 41.6254 24.7034 42.301C24.3567 42.9767 23.5279 43.2434 22.8523 42.8967L21.8047 42.3591L8.43241 49.2206C8.00615 49.4394 7.49677 49.4204 7.08792 49.1707C6.67907 48.9209 6.42969 48.4764 6.42969 47.9973V16.8684C6.42969 16.3527 6.71819 15.8804 7.17697 15.645L21.1529 8.47376C21.3469 8.36914 21.5688 8.30975 21.8047 8.30975C22.0405 8.30975 22.2625 8.36914 22.4565 8.47377L35.8047 15.3229L49.177 8.4614C49.6032 8.24268 50.1126 8.26161 50.5215 8.51135ZM9.17969 17.7083L20.4297 11.9357V39.9738L9.17969 45.7463V17.7083Z" fill="url(#paint1_linear_2208_2602)"/>
</g>
<defs>
<linearGradient id="paint0_linear_2208_2602" x1="42.3392" y1="33.6289" x2="42.3392" y2="52.7873" gradientUnits="userSpaceOnUse">
<stop stop-color="#93D600"/>
<stop offset="1" stop-color="#55B03B"/>
</linearGradient>
<linearGradient id="paint1_linear_2208_2602" x1="28.8047" y1="8.30975" x2="28.8047" y2="49.3723" gradientUnits="userSpaceOnUse">
<stop stop-color="#93D600"/>
<stop offset="1" stop-color="#55B03B"/>
</linearGradient>
<clipPath id="clip0_2208_2602">
<rect width="56" height="57.4688" fill="white" transform="translate(0.804688 0.106567)"/>
</clipPath>
</defs>
</svg>
