<svg width="48" height="41" viewBox="0 0 48 41" fill="none" xmlns="http://www.w3.org/2000/svg">
<path fill-rule="evenodd" clip-rule="evenodd" d="M23 3.43616C15.4316 3.43616 8.96431 7.48693 3.61188 16.0613C8.46664 23.841 14.2393 27.8817 20.8791 28.5769C21.5739 28.649 22.2823 28.6862 23 28.6862C23.7594 28.6862 24.375 29.3018 24.375 30.0612C24.375 30.8205 23.7594 31.4362 23 31.4362C22.1872 31.4362 21.3838 31.394 20.5947 31.3121L20.5935 31.312C12.6294 30.4784 6.05071 25.4889 0.820804 16.7683C0.559681 16.3329 0.559736 15.7891 0.820947 15.3537C6.58551 5.74612 13.9736 0.686157 23 0.686157C31.6827 0.686157 38.8578 5.3712 44.5237 14.2927C44.9308 14.9337 44.7412 15.7834 44.1001 16.1905C43.4591 16.5976 42.6094 16.408 42.2023 15.767C36.8875 7.39844 30.4873 3.43616 23 3.43616ZM23.0026 10.0195C21.4003 10.0195 19.8635 10.6561 18.7305 11.7891C17.5975 12.9221 16.9609 14.4588 16.9609 16.0612C16.9609 17.6635 17.5975 19.2003 18.7305 20.3333C19.8635 21.4663 21.4003 22.1029 23.0026 22.1029C24.605 22.1029 26.1417 21.4663 27.2747 20.3333C28.4077 19.2003 29.0443 17.6635 29.0443 16.0612C29.0443 14.4588 28.4077 12.9221 27.2747 11.7891C26.1417 10.6561 24.605 10.0195 23.0026 10.0195ZM20.675 13.7336C21.2924 13.1163 22.1296 12.7695 23.0026 12.7695C23.8756 12.7695 24.7129 13.1163 25.3302 13.7336C25.9475 14.3509 26.2943 15.1882 26.2943 16.0612C26.2943 16.9342 25.9475 17.7715 25.3302 18.3888C24.7129 19.0061 23.8756 19.3529 23.0026 19.3529C22.1296 19.3529 21.2924 19.0061 20.675 18.3888C20.0577 17.7715 19.7109 16.9342 19.7109 16.0612C19.7109 15.1882 20.0577 14.3509 20.675 13.7336ZM31.078 24.1391C32.6486 22.5685 34.7788 21.6862 37 21.6862C39.2212 21.6862 41.3514 22.5685 42.922 24.1391C44.4926 25.7098 45.375 27.84 45.375 30.0612C45.375 31.8187 44.8225 33.5194 43.8138 34.9309L47.3051 38.4222C47.8421 38.9592 47.8421 39.8298 47.3051 40.3667C46.7681 40.9037 45.8975 40.9037 45.3605 40.3667L41.8691 36.8753C40.4578 37.8838 38.7574 38.4362 37 38.4362C34.7788 38.4362 32.6486 37.5538 31.078 35.9832C29.5074 34.4126 28.625 32.2823 28.625 30.0612C28.625 27.84 29.5074 25.7098 31.078 24.1391ZM37 24.4362C35.5082 24.4362 34.0774 25.0288 33.0225 26.0837C31.9676 27.1386 31.375 28.5693 31.375 30.0612C31.375 31.553 31.9676 32.9837 33.0225 34.0386C34.0774 35.0935 35.5082 35.6862 37 35.6862C38.4918 35.6862 39.9226 35.0935 40.9775 34.0386C42.0324 32.9837 42.625 31.553 42.625 30.0612C42.625 28.5693 42.0324 27.1386 40.9775 26.0837C39.9226 25.0288 38.4918 24.4362 37 24.4362Z" fill="url(#paint0_linear_2208_2578)"/>
<defs>
<linearGradient id="paint0_linear_2208_2578" x1="24.1664" y1="0.686157" x2="24.1664" y2="40.7695" gradientUnits="userSpaceOnUse">
<stop stop-color="#93D600"/>
<stop offset="1" stop-color="#55B03B"/>
</linearGradient>
</defs>
</svg>
