<svg width="32" height="32" viewBox="0 0 32 32" fill="none" xmlns="http://www.w3.org/2000/svg">
<path fill-rule="evenodd" clip-rule="evenodd" d="M3 5.33337C3 4.78109 3.44772 4.33337 4 4.33337H8C10.3869 4.33337 12.6761 5.28159 14.364 6.96941C16.0518 8.65724 17 10.9464 17 13.3334C17 13.8857 16.5523 14.3334 16 14.3334C15.4477 14.3334 15 13.8857 15 13.3334C15 11.4769 14.2625 9.69638 12.9497 8.38363C11.637 7.07087 9.85652 6.33337 8 6.33337H5V8.00004C5 9.85656 5.7375 11.637 7.05025 12.9498C8.36301 14.2625 10.1435 15 12 15H16C16.5523 15 17 15.4478 17 16C17 16.5523 16.5523 17 16 17H12C9.61305 17 7.32387 16.0518 5.63604 14.364C3.94821 12.6762 3 10.387 3 8.00004V5.33337Z" fill="#55B03B"/>
<path fill-rule="evenodd" clip-rule="evenodd" d="M24 11.6666C22.1435 11.6666 20.363 12.4041 19.0503 13.7169C17.7375 15.0296 17 16.8101 17 18.6666C17 18.7835 16.9799 18.8957 16.9431 19H20C21.8565 19 23.637 18.2625 24.9497 16.9497C26.2625 15.637 27 13.8565 27 12V11.6666H24ZM15.2546 19.3333C15.0963 19.5102 15 19.7438 15 20C15 20.5522 15.4477 21 16 21H20C22.3869 21 24.6761 20.0517 26.364 18.3639C28.0518 16.6761 29 14.3869 29 12V10.6666C29 10.1143 28.5523 9.66663 28 9.66663H24C21.6131 9.66663 19.3239 10.6148 17.636 12.3027C15.9482 13.9905 15 16.2797 15 18.6666C15 18.9227 15.0963 19.1564 15.2546 19.3333Z" fill="#55B03B"/>
<path fill-rule="evenodd" clip-rule="evenodd" d="M16 12.3334C16.5523 12.3334 17 12.7811 17 13.3334V26.6667C17 27.219 16.5523 27.6667 16 27.6667C15.4477 27.6667 15 27.219 15 26.6667V13.3334C15 12.7811 15.4477 12.3334 16 12.3334Z" fill="#55B03B"/>
</svg>
